<svg width="480" height="160" viewBox="0 0 480 160" fill="none" xmlns="http://www.w3.org/2000/svg" role="img" aria-label="Just Fucking Use">
  <rect x="1" y="1" width="478" height="158" rx="14" fill="#0d1117" stroke="#21262d" stroke-width="1"/>
  <rect x="0" y="14" width="4" height="132" rx="2" fill="#484f58"/>
  <g transform="translate(38,29) scale(0.8)" fill="none" stroke="#8b949e" stroke-width="2" stroke-linecap="round" stroke-linejoin="round"><path d="M8.5 14.5A2.5 2.5 0 0 0 11 12c0-1.38-.5-2-1-3-1.072-2.143-.224-4.054 2-6 .5 2.5 2 4.9 4 6.5 2 1.6 3 3.5 3 5.5a7 7 0 1 1-14 0c0-1.153.433-2.294 1-3a2.5 2.5 0 0 0 2.5 2.5z"/></g>
  <text x="66" y="46" font-size="17" font-weight="700" fill="#e6edf3" font-family="-apple-system,BlinkMacSystemFont,'Segoe UI',Inter,Helvetica,Arial,sans-serif">Just Fucking Use</text>
  <text x="38" y="76" font-size="13.5" fill="#8b949e" font-family="-apple-system,BlinkMacSystemFont,'Segoe UI',Inter,Helvetica,Arial,sans-serif">A collection of no-nonsense landing pages for developers</text>
  <text x="38" y="97" font-size="13.5" fill="#8b949e" font-family="-apple-system,BlinkMacSystemFont,'Segoe UI',Inter,Helvetica,Arial,sans-serif">who need to stop overthinking their tools.</text>
  <g>
    <rect x="38" y="122" width="69" height="24" rx="12" fill="none" stroke="#30363d" stroke-width="1"/>
    <text x="72.5" y="138" font-size="11.5" fill="#adbac7" font-family="-apple-system,BlinkMacSystemFont,'Segoe UI',Inter,Helvetica,Arial,sans-serif" text-anchor="middle">8 sites</text>
  </g>
</svg>
