<svg width="480" height="160" viewBox="0 0 480 160" fill="none" xmlns="http://www.w3.org/2000/svg" role="img" aria-label="Security scanner">
  <rect x="1" y="1" width="478" height="158" rx="14" fill="#0d1117" stroke="#21262d" stroke-width="1"/>
  <rect x="0" y="14" width="4" height="132" rx="2" fill="#484f58"/>
  <g transform="translate(38,29) scale(0.8)" fill="none" stroke="#8b949e" stroke-width="2" stroke-linecap="round" stroke-linejoin="round"><path d="M20 13c0 5-3.5 7.5-7.66 8.95a1 1 0 0 1-.67-.01C7.5 20.5 4 18 4 13V6a1 1 0 0 1 1-1c2 0 4.5-1.2 6.24-2.72a1.17 1.17 0 0 1 1.52 0C14.51 3.81 17 5 19 5a1 1 0 0 1 1 1z"/></g>
  <text x="66" y="46" font-size="17" font-weight="700" fill="#e6edf3" font-family="-apple-system,BlinkMacSystemFont,'Segoe UI',Inter,Helvetica,Arial,sans-serif">Security scanner</text>
  <text x="38" y="76" font-size="13.5" fill="#8b949e" font-family="-apple-system,BlinkMacSystemFont,'Segoe UI',Inter,Helvetica,Arial,sans-serif">Scans your repos for vulnerabilities and writes fix</text>
  <text x="38" y="97" font-size="13.5" fill="#8b949e" font-family="-apple-system,BlinkMacSystemFont,'Segoe UI',Inter,Helvetica,Arial,sans-serif">guides. Self-hosted, model-agnostic.</text>
  <g>
    <rect x="38" y="122" width="76" height="24" rx="12" fill="none" stroke="#30363d" stroke-width="1"/>
    <text x="76" y="138" font-size="11.5" fill="#adbac7" font-family="-apple-system,BlinkMacSystemFont,'Segoe UI',Inter,Helvetica,Arial,sans-serif" text-anchor="middle">Security</text>
  </g>
  <g>
    <rect x="122" y="122" width="97" height="24" rx="12" fill="none" stroke="#30363d" stroke-width="1"/>
    <text x="170.5" y="138" font-size="11.5" fill="#adbac7" font-family="-apple-system,BlinkMacSystemFont,'Segoe UI',Inter,Helvetica,Arial,sans-serif" text-anchor="middle">Self-hosted</text>
  </g>
</svg>
